<svg width="262" height="140" viewBox="0 0 262 140" fill="none" xmlns="http://www.w3.org/2000/svg">
<g clip-path="url(#clip0_11119_14507)">
<rect width="262" height="140" rx="2" fill="#CBDDFF"/>
<path d="M28.0117 30.7979C28.0117 28.1594 30.1506 26.0205 32.7891 26.0205H228.948C231.586 26.0205 233.725 28.1594 233.725 30.7979V140.741C233.725 143.379 231.586 145.518 228.948 145.518H32.7891C30.1506 145.518 28.0117 143.379 28.0117 140.741V30.7979Z" fill="white"/>
<rect width="176.322" height="13.1231" transform="matrix(1 0.000181335 -0.000228743 1 42.5 59.8428)" fill="#ECEFF8"/>
<path d="M49.3359 66.418L74.5935 66.418" stroke="#181B34" stroke-width="1.0524"/>
<rect width="52.5069" height="13.2568" transform="matrix(1 0.00014618 -0.000283755 1 166.004 59.7148)" fill="#00CA72"/>
<circle cx="105.473" cy="66.418" r="4.47269" fill="#CBDDFF"/>
<rect width="176.322" height="13.1231" transform="matrix(1 0.000181335 -0.000228743 1 42.5 74.4912)" fill="#ECEFF8"/>
<path d="M49 80.999H83" stroke="#181B34" stroke-width="1.0524"/>
<rect width="52.5069" height="13.2568" transform="matrix(1 0.00014618 -0.000283755 1 166.004 74.3633)" fill="#FFCC00"/>
<circle cx="105.473" cy="81.0664" r="4.47269" fill="#CBDDFF"/>
<rect width="176.322" height="13.1231" transform="matrix(1 0.000181335 -0.000228743 1 42.5 89.1406)" fill="#ECEFF8"/>
<path d="M49 96H79" stroke="#181B34" stroke-width="1.0524"/>
<rect width="52.5069" height="13.2568" transform="matrix(1 0.00014618 -0.000283755 1 166.004 89.0117)" fill="#FFCC00"/>
<circle cx="105.473" cy="95.7159" r="4.47269" fill="#CBDDFF"/>
<path d="M39.8613 62.4923C39.8613 61.0393 41.0393 59.8613 42.4923 59.8613H43.6061V102.521H42.4923C41.0393 102.521 39.8613 101.343 39.8613 99.89V62.4923Z" fill="#6161FF"/>
<path d="M39.8652 39.1553H85.1183" stroke="#CBDDFF" stroke-width="2.60994"/>
<path d="M39.8652 53H70.6478" stroke="#6161FF" stroke-width="1.82065"/>
<mask id="mask0_11119_14507" style="mask-type:alpha" maskUnits="userSpaceOnUse" x="28" y="105" width="206" height="41">
<path d="M28.0078 105.385L233.721 105.427L233.714 140.727C233.713 143.366 231.574 145.504 228.936 145.504L32.7771 145.464C30.1386 145.463 28.0001 143.324 28.0006 140.686L28.0078 105.385Z" fill="white"/>
</mask>
<g mask="url(#mask0_11119_14507)">
<rect width="176.322" height="13.1231" transform="matrix(1 0.00016627 -0.000249469 1 42.6777 119.792)" fill="#ECEFF8"/>
<path d="M49.5005 126.367L85.1646 126.367" stroke="#181B34" stroke-width="1.0524"/>
<rect width="52.5069" height="13.2568" transform="matrix(1 0.000149447 -0.000277551 1 166.229 119.663)" fill="#FFCC00"/>
<circle cx="105.637" cy="126.367" r="4.47269" fill="#CBDDFF"/>
<rect width="176.354" height="13.1231" transform="matrix(1 0.000181335 -0.000228743 1 42.6621 134.44)" fill="#ECEFF8"/>
<rect width="52.5069" height="13.2568" transform="matrix(1 0.000149447 -0.000277551 1 166.227 134.312)" fill="#FB275D"/>
<circle cx="105.635" cy="141.016" r="4.47269" fill="#CBDDFF"/>
<path d="M40.0273 113.349H78.1631" stroke="#449AFB" stroke-width="1.82065"/>
<path d="M40.0268 122.441C40.0271 120.988 41.2053 119.81 42.6583 119.81L43.7721 119.81L43.7634 162.445L42.6497 162.445C41.1966 162.445 40.0189 161.266 40.0192 159.813L40.0268 122.441Z" fill="#449AFB"/>
</g>
<rect width="37.7718" height="5.28637" rx="2.64319" transform="matrix(1 0 -0.00013076 1 119 63.79)" fill="#CBDDFF"/>
<path d="M119 66.4313C119 64.9715 120.184 63.7881 121.644 63.7881H135.868L135.868 69.0745H121.643C120.183 69.0745 119 67.8911 119 66.4313Z" fill="#6161FF"/>
<rect width="37.7718" height="5.28637" rx="2.64319" transform="matrix(1 0 -0.00013076 1 119 78.4385)" fill="#CBDDFF"/>
<path d="M119 81.0809C119 79.6212 120.184 78.4378 121.644 78.4377L145.181 78.4365L145.18 83.7229L121.643 83.7241C120.183 83.7242 119 82.5407 119 81.0809Z" fill="#6161FF"/>
<rect width="37.7718" height="5.28637" rx="2.64319" transform="matrix(1 0 -0.00013076 1 119 93.0879)" fill="#CBDDFF"/>
<path d="M119 95.7298C119 94.27 120.184 93.0867 121.644 93.0866L141.067 93.0858L141.066 98.3722L121.643 98.373C120.183 98.373 119 97.1896 119 95.7298Z" fill="#6161FF"/>
<rect width="37.7718" height="5.28637" rx="2.64319" transform="matrix(1 0 -0.00013076 1 119.227 123.739)" fill="#CBDDFF"/>
<path d="M119.227 126.382C119.227 124.922 120.41 123.739 121.87 123.739L152.264 123.736L152.263 129.023L121.87 129.025C120.41 129.025 119.227 127.842 119.227 126.382Z" fill="#6161FF"/>
<rect width="37.7718" height="5.28637" rx="2.64319" transform="matrix(1 0 -0.00013076 1 119.225 138.388)" fill="#CBDDFF"/>
<path d="M119.225 141.03C119.225 139.57 120.408 138.387 121.868 138.387L148.835 138.385L148.834 143.671L121.868 143.673C120.408 143.673 119.225 142.49 119.225 141.03Z" fill="#6161FF"/>
</g>
<defs>
<clipPath id="clip0_11119_14507">
<rect width="262" height="140" rx="2" fill="white"/>
</clipPath>
</defs>
</svg>
