<svg width="262" height="140" viewBox="0 0 262 140" fill="none" xmlns="http://www.w3.org/2000/svg">
<g clip-path="url(#clip0_11120_602)">
<rect width="262" height="140" rx="2" fill="#CBDDFF"/>
<path d="M28 30.7774C28 28.1389 30.1389 26 32.7774 26H229.223C231.861 26 234 28.1389 234 30.7774V140.223C234 142.861 231.861 145 229.223 145H32.7774C30.1389 145 28 142.861 28 140.223V30.7774Z" fill="white"/>
<path d="M40 39H92" stroke="#CBDDFF" stroke-width="2.60994"/>
<rect x="40" y="54" width="89" height="49" rx="2.84" fill="#ECEFF8"/>
<rect x="40" y="108" width="57" height="49" rx="2.84" fill="#ECEFF8"/>
<rect x="102" y="108" width="57" height="49" rx="2.84" fill="#ECEFF8"/>
<rect x="164" y="108" width="58" height="49" rx="2.84" fill="#ECEFF8"/>
<path d="M179.895 132.695C179.895 133.081 179.799 133.451 179.606 133.805C179.413 134.151 179.127 134.441 178.749 134.674C178.379 134.907 177.933 135.04 177.41 135.072V136.05H176.758V135.072C176.026 135.008 175.431 134.775 174.972 134.373C174.514 133.962 174.28 133.443 174.272 132.816H175.443C175.475 133.154 175.6 133.447 175.817 133.697C176.042 133.946 176.356 134.103 176.758 134.167V131.151C176.219 131.014 175.785 130.873 175.455 130.728C175.125 130.584 174.843 130.358 174.61 130.053C174.377 129.747 174.26 129.337 174.26 128.822C174.26 128.17 174.485 127.631 174.936 127.205C175.395 126.779 176.002 126.541 176.758 126.493V125.491H177.41V126.493C178.093 126.549 178.644 126.77 179.063 127.157C179.481 127.535 179.722 128.029 179.787 128.641H178.616C178.576 128.359 178.451 128.106 178.242 127.881C178.033 127.647 177.756 127.495 177.41 127.422V130.366C177.941 130.503 178.371 130.644 178.701 130.789C179.039 130.925 179.32 131.147 179.545 131.452C179.779 131.758 179.895 132.172 179.895 132.695ZM175.382 128.762C175.382 129.156 175.499 129.457 175.732 129.667C175.966 129.876 176.308 130.049 176.758 130.185V127.398C176.34 127.438 176.006 127.575 175.757 127.808C175.507 128.033 175.382 128.351 175.382 128.762ZM177.41 134.179C177.844 134.131 178.182 133.974 178.423 133.709C178.673 133.443 178.797 133.126 178.797 132.756C178.797 132.361 178.677 132.06 178.435 131.851C178.194 131.633 177.852 131.46 177.41 131.332V134.179ZM181.767 128.472C181.823 127.732 182.108 127.153 182.623 126.734C183.138 126.316 183.806 126.107 184.626 126.107C185.173 126.107 185.644 126.207 186.038 126.408C186.44 126.602 186.742 126.867 186.943 127.205C187.152 127.543 187.257 127.925 187.257 128.351C187.257 128.85 187.112 129.28 186.823 129.642C186.541 130.004 186.171 130.238 185.712 130.342V130.403C186.235 130.531 186.65 130.785 186.955 131.163C187.261 131.541 187.414 132.036 187.414 132.647C187.414 133.106 187.309 133.52 187.1 133.89C186.891 134.252 186.577 134.537 186.159 134.747C185.741 134.956 185.238 135.06 184.651 135.06C183.798 135.06 183.098 134.839 182.551 134.397C182.004 133.946 181.698 133.311 181.634 132.49H182.696C182.752 132.973 182.949 133.367 183.287 133.673C183.625 133.978 184.075 134.131 184.638 134.131C185.202 134.131 185.628 133.986 185.918 133.697C186.215 133.399 186.364 133.017 186.364 132.55C186.364 131.947 186.163 131.513 185.761 131.247C185.358 130.982 184.751 130.849 183.939 130.849H183.661V129.932H183.951C184.691 129.924 185.25 129.803 185.628 129.57C186.006 129.329 186.195 128.959 186.195 128.46C186.195 128.033 186.054 127.692 185.773 127.434C185.499 127.177 185.105 127.048 184.59 127.048C184.091 127.048 183.689 127.177 183.384 127.434C183.078 127.692 182.897 128.038 182.841 128.472H181.767ZM194.266 127.132L190.912 135H189.801L193.204 127.241H188.546V126.3H194.266V127.132ZM201.046 127.229H196.811V129.98C196.996 129.723 197.269 129.514 197.631 129.353C197.994 129.184 198.384 129.099 198.802 129.099C199.47 129.099 200.013 129.24 200.431 129.522C200.849 129.795 201.147 130.153 201.324 130.596C201.509 131.03 201.601 131.493 201.601 131.983C201.601 132.563 201.493 133.081 201.276 133.54C201.058 133.998 200.725 134.36 200.274 134.626C199.832 134.891 199.281 135.024 198.621 135.024C197.776 135.024 197.093 134.807 196.57 134.373C196.047 133.938 195.729 133.359 195.616 132.635H196.69C196.795 133.093 197.016 133.451 197.354 133.709C197.692 133.966 198.118 134.095 198.633 134.095C199.269 134.095 199.747 133.906 200.069 133.528C200.391 133.142 200.552 132.635 200.552 132.007C200.552 131.38 200.391 130.897 200.069 130.559C199.747 130.214 199.273 130.041 198.645 130.041C198.219 130.041 197.845 130.145 197.523 130.354C197.209 130.555 196.98 130.833 196.835 131.187H195.797V126.264H201.046V127.229ZM211.773 126.65V135H210.675V128.774L207.899 135H207.127L204.34 128.762V135H203.242V126.65H204.424L207.513 133.552L210.602 126.65H211.773Z" fill="#181B34"/>
<rect x="134" y="54" width="88" height="49" rx="2.84" fill="#ECEFF8"/>
<circle cx="145" cy="70" r="2" fill="#00CA72"/>
<circle cx="145" cy="78" r="2" fill="#FFCC00"/>
<circle cx="145" cy="86" r="2" fill="#6161FF"/>
<path d="M150 70H161.5" stroke="#181B34"/>
<path d="M150 78H159" stroke="#181B34"/>
<path d="M150 86H163" stroke="#181B34"/>
<path d="M172 117H191" stroke="#CBDDFF" stroke-width="2"/>
<path d="M49 116H63" stroke="#CBDDFF" stroke-width="2"/>
<circle cx="194.582" cy="78.5822" r="16.5821" fill="#FFCC00"/>
<path d="M211.164 78.5821C211.164 81.6501 210.313 84.6579 208.706 87.2709C207.098 89.884 204.797 91.9998 202.059 93.3831C199.32 94.7664 196.252 95.3629 193.195 95.1061C190.137 94.8494 187.211 93.7496 184.742 91.9291C182.273 90.1085 180.357 87.6386 179.207 84.794C178.058 81.9495 177.721 78.8419 178.232 75.8169C178.744 72.7919 180.085 69.9682 182.105 67.6598C184.126 65.3514 186.748 63.6489 189.679 62.7416L194.582 78.5821H211.164Z" fill="#00CA72"/>
<path d="M211.164 78.5821C211.164 80.7597 210.735 82.916 209.902 84.9279C209.069 86.9397 207.847 88.7677 206.307 90.3075L194.582 78.5821H211.164Z" fill="#6161FF"/>
<rect x="79" y="62" width="48" height="7" fill="#00CA72"/>
<rect x="89" y="88" width="31" height="7" fill="#6161FF"/>
<rect x="62" y="75" width="32" height="7" fill="#FFCC00"/>
<circle cx="49" cy="66" r="4" fill="#CBDDFF"/>
<circle cx="49" cy="92" r="4" fill="#CBDDFF"/>
<circle cx="49" cy="79" r="4" fill="#CBDDFF"/>
<rect x="49" y="122" width="39.0272" height="21.3916" rx="2" fill="#CBDDFF"/>
<rect x="51" y="131" width="39.0272" height="8.31895" rx="0.78" fill="#CBDDFF"/>
<path d="M85.9707 139.824C85.9707 140.481 85.4386 141.013 84.7823 141.013H69.4301V124.375H84.7823C85.4386 124.375 85.9707 124.907 85.9707 125.563V139.824Z" fill="#FB275D"/>
<path d="M63.9199 126.157C63.9199 125.172 64.718 124.374 65.7026 124.374H82.7578V141.012H65.7026C64.718 141.012 63.9199 140.214 63.9199 139.229V126.157Z" fill="#FFCC00"/>
<path d="M51.0547 125.374C51.0547 124.822 51.5024 124.374 52.0547 124.374H72.6494V141.012H52.0547C51.5024 141.012 51.0547 140.564 51.0547 140.012V125.374Z" fill="#00CA72"/>
<rect x="132.828" y="119" width="7.41462" height="25" fill="#579BFC"/>
<rect x="145.244" y="115" width="7.4145" height="29.3327" fill="#6161FF"/>
<rect x="120.414" y="118" width="7.41462" height="26" fill="#579BFC"/>
<rect x="108" y="125.667" width="7.4145" height="18.6663" fill="#579BFC"/>
</g>
<defs>
<clipPath id="clip0_11120_602">
<rect width="262" height="140" rx="2" fill="white"/>
</clipPath>
</defs>
</svg>
